<?xml version="1.0" encoding="UTF-8"?>
<svg width="60px" height="60px" viewBox="0 0 60 60" version="1.1" xmlns="http://www.w3.org/2000/svg" xmlns:xlink="http://www.w3.org/1999/xlink">
    <!-- Generator: Sketch 56.2 (81672) - https://sketch.com -->
    <title>HCD</title>
    <desc>Created with Sketch.</desc>
    <g id="Page-1" stroke="none" stroke-width="1" fill="none" fill-rule="evenodd">
        <g id="About-us" transform="translate(-9212.000000, -713.000000)" fill="#000000" fill-rule="nonzero">
            <g id="Group-7" transform="translate(9174.000000, 204.000000)">
                <g id="Group-8-Copy-6" transform="translate(0.000000, 471.000000)">
                    <g id="Group-4">
                        <g id="HCD" transform="translate(38.000000, 38.000000)">
                            <path d="M2.66835165,3.55362637 C2.43817153,3.55362637 2.21723381,3.4637534 2.05069625,3.29721584 L0.885641303,2.1321609 C0.544345199,1.79170282 0.544345199,1.23862685 0.885206161,0.898603382 C1.22700993,0.556800148 1.779103,0.556800148 2.11919882,0.897733633 L3.28620708,2.06342364 C3.62627439,2.40432969 3.62627439,2.95610987 3.28557244,3.29765098 C3.11884446,3.46355687 2.89742361,3.55362637 2.66835165,3.55362637 Z M57.8856479,56.664183 L59.0520215,57.8285786 C59.3925756,58.1695523 59.3925756,58.7216565 59.0515041,59.0631475 C58.8839082,59.2295076 58.6633988,59.3193407 58.4347253,59.3193407 C58.2045452,59.3193407 57.9836074,59.2294677 57.8170699,59.0629301 L56.6505963,57.8971159 C56.3105375,57.5570571 56.3105375,57.0044608 56.6509138,56.6636654 C56.9914781,56.3231013 57.5445659,56.3231013 57.8856479,56.664183 Z M57.8168451,0.897733633 C58.156977,0.556763986 58.7092377,0.556763986 59.0512791,0.898385746 C59.3917713,1.2384591 59.3917713,1.79187057 59.0512796,2.13194339 L57.8854477,3.29711584 C57.7188101,3.4637534 57.4978724,3.55362637 57.2676923,3.55362637 C57.0386203,3.55362637 56.8171995,3.46355687 56.6491672,3.29634823 C56.3097696,2.95610987 56.3097696,2.40432969 56.6504715,2.06278858 L57.8168451,0.897733633 Z M31.8075411,28.1419001 C32.1483734,28.481895 32.1485032,29.0351387 31.8079829,29.3752401 L31.5565565,29.6266664 L31.2030031,29.9802198 L31.8077653,30.584982 C32.1486195,30.9262556 32.1486195,31.4809972 31.8075481,31.8224882 C31.6424996,31.9863135 31.4226767,32.0747253 31.1901099,32.0747253 C30.9585966,32.0747253 30.7380381,31.9860619 30.5691796,31.8196744 L30.3239591,31.5724622 L29.9713355,31.21704 L29.3638569,31.8213465 C29.1976176,31.9859541 28.9770113,32.0747253 28.7465934,32.0747253 C28.5138565,32.0747253 28.2937076,31.9862265 28.128064,31.8213989 C27.7880476,31.4805413 27.7880476,30.9262918 28.1291552,30.5847646 L28.3801468,30.3337732 L28.7337002,29.9802198 L28.128938,29.3754576 C27.7882287,29.0351673 27.7882287,28.4817558 28.1287204,28.141683 C28.4691443,27.8000035 29.0217274,27.8002627 29.3629301,28.1414655 L29.6163843,28.3935986 L29.9713355,28.7466962 L30.5731898,28.1400653 C30.9139081,27.8006115 31.4666711,27.8006115 31.8075411,28.1419001 Z M48.9211692,11.027177 C49.262944,11.3685324 49.262944,11.9197989 48.9213867,12.260518 L48.5184649,12.6640989 L48.2848027,12.8981441 L48.4087527,13.2047572 C48.5541507,13.5644261 48.6301099,13.9393946 48.6301099,14.3202198 L48.6301099,46.1643956 C48.6301099,46.4046369 48.5918204,46.6497439 48.5147958,46.9356485 L48.4398922,47.2136807 L48.9203585,47.6975707 C49.2628712,48.0392499 49.2628712,48.590839 48.9222648,48.9301901 C48.7556809,49.098399 48.5360634,49.1872527 48.303956,49.1872527 C48.0722305,49.1872527 47.8520493,49.0982154 47.6880295,48.9325795 L47.6230657,48.868277 L47.3613503,48.6093757 L47.0364138,48.7824109 C46.5932037,49.0184293 46.1294847,49.1424176 45.6527473,49.1424176 L32.4204396,49.1424176 C31.41673,49.2737654 30.6161485,49.3382418 29.8391209,49.3382418 C29.0620058,49.3382418 28.2612434,49.2737385 27.3256048,49.1469463 L13.8046154,49.1424176 C13.4104234,49.1424176 13.0242067,49.063691 12.6621553,48.9130776 L12.3918271,48.8006211 L12.1614764,48.9813484 C11.9882985,49.1172194 11.8035261,49.1879121 11.6320879,49.1879121 C11.3995988,49.1879121 11.1805453,49.0992424 11.0161613,48.9332389 C10.7035195,48.6222182 10.686613,48.1260417 10.9719873,47.7758682 L11.1590613,47.5463157 L11.0476789,47.2719345 C10.9036325,46.9170887 10.8279121,46.5428987 10.8279121,46.1643956 L10.8279121,14.3189011 C10.8279121,13.8443064 10.9523476,13.3791612 11.1878718,12.934081 L11.359176,12.61036 L11.0171416,12.2630228 C10.6735783,11.9190192 10.6735783,11.3675743 11.0146497,11.0260833 C11.3556699,10.6854826 11.9089253,10.6854826 12.2497433,11.0263006 L12.5521079,11.3280055 L12.7563828,11.5318344 L13.0350642,11.4569269 C13.321399,11.3799622 13.5672295,11.3415385 13.8052747,11.3415385 L45.6527473,11.3415385 C46.0156401,11.3415385 46.3787039,11.4142928 46.7378344,11.553621 L47.0417374,11.6715232 L47.6863006,11.02696 C48.0270825,10.6861782 48.5801703,10.6861782 48.9211692,11.027177 Z M43.1130143,41.0996834 C45.4261218,38.1456027 46.70593,34.530413 46.707912,30.726854 C46.707912,26.5461199 45.1605227,22.5978293 42.4124765,19.520999 L42.0603346,19.1267258 L40.7737353,20.4114658 C40.6072001,20.5784088 40.3884811,20.6668132 40.1558242,20.6668132 C39.924273,20.6668132 39.7050687,20.5782126 39.5377358,20.4112889 C39.1974595,20.071431 39.1974595,19.5180195 39.5379511,19.1779467 L40.4050672,18.31149 L40.8000396,17.9168181 L40.3643316,17.5676366 C37.3890029,15.1831732 33.7129528,13.8610989 29.8410989,13.8610989 C26.0391963,13.8610989 22.4224782,15.1413858 19.4686355,17.4547036 L19.024217,17.8027524 L20.3991939,19.1777292 C20.7399031,19.5180195 20.7399031,20.071431 20.3994115,20.4115038 C20.2326824,20.5782328 20.0137466,20.6668132 19.7828571,20.6668132 C19.55003,20.6668132 19.3309885,20.5783226 19.1660694,20.4125911 L18.1188281,19.3653477 L17.7487395,18.9952591 L17.3959414,19.3818656 C14.5704769,22.4780921 12.9742857,26.4817119 12.9742857,30.7265934 C12.9742857,34.5986513 14.29651,38.2747659 16.6808953,41.2485971 L17.029896,41.6838745 L19.1651348,39.5494445 C19.5057322,39.2080089 20.0578252,39.2080089 20.3991939,39.5493776 C20.7399394,39.8897041 20.7399394,40.4432835 20.3991939,40.784029 L18.6136341,42.5702481 L18.2394951,42.9445253 L18.6343897,43.2968344 C21.0816126,45.4801479 24.1043954,46.9098023 27.3742453,47.3909373 L32.2338462,47.3962637 C35.642148,46.8993597 38.7182084,45.423565 41.185323,43.1702901 L41.5717709,42.817338 L39.53671,40.783889 C39.1961046,40.4437025 39.1961046,39.8901231 39.5368501,39.5493776 C39.8784456,39.2082013 40.4308742,39.2083309 40.7712841,39.5491599 L42.3656411,41.1448358 L42.7648284,41.5443533 L43.1130143,41.0996834 Z M43.5154058,18.1456611 C44.4507747,19.1605946 45.2664157,20.2655008 45.9518916,21.4496206 L46.8846154,23.0608467 L46.8846154,14.6121372 L46.1957939,14.8930683 C46.0845812,14.9384256 45.9705152,14.9615385 45.8597802,14.9615385 C45.6277674,14.9615385 45.4070865,14.8724744 45.2425605,14.7075422 C44.9951095,14.4596815 44.9227222,14.0924396 45.0491345,13.7716793 L45.3184352,13.0883516 L36.0985479,13.0883516 L38.0241069,14.0368848 C39.3964465,14.7129012 40.6520966,15.5223485 41.7685158,16.4579481 L41.9968785,16.6493243 L42.2738727,16.539558 C42.598627,16.4108655 42.9688792,16.4830493 43.2167047,16.7312838 C43.4534448,16.9688321 43.5259545,17.3196258 43.4121187,17.6388896 L43.3106449,17.9234828 L43.5154058,18.1456611 Z M14.0769231,14.9615385 C13.8487005,14.9615385 13.6319406,14.8752325 13.4655388,14.7132662 L12.576044,13.7447051 L12.576044,23.5111354 L13.5142775,21.8031486 C14.2795334,20.410055 15.241365,19.106673 16.3702769,17.9207916 L16.5425759,17.7397977 L16.5012458,17.4933478 C16.4515453,17.1969854 16.5283139,16.9229687 16.7197072,16.7315754 C16.9250369,16.5270277 17.2202224,16.4521183 17.5243859,16.5213698 L17.7651469,16.5761859 L17.9550241,16.4183336 C19.0578437,15.5015166 20.297899,14.706465 21.6568246,14.0368589 L23.5817639,13.0883516 L14.6210128,13.0883516 L14.8869327,13.7700568 C15.0127268,14.0925393 14.9404501,14.4604178 14.6939936,14.7076918 C14.5290157,14.8722604 14.3081874,14.9615385 14.0769231,14.9615385 Z M13.7752182,47.3969231 L21.4320661,47.3969231 L19.9654739,46.4737729 C17.2606255,44.7711992 15.0342878,42.4215784 13.5130588,39.649561 L12.5747253,37.9397089 L12.5747253,46.157015 L13.4635529,45.2496701 C13.8010178,44.9130815 14.3534456,44.9133407 14.6934845,45.2542171 C15.0346647,45.5949788 15.0346647,46.1485582 14.6939191,46.4893038 L14.6413431,46.5412335 L13.7752182,47.3969231 Z M38.2478976,47.3969231 L46.1608257,47.3969231 L45.2399756,46.4871675 C44.9007924,46.1488095 44.9007924,45.5955655 45.2419074,45.2548695 C45.493452,45.0033251 45.8685346,44.9325459 46.1933495,45.0670261 L46.8846154,45.3532248 L46.8846154,38.3904079 L45.9518059,40.003055 C44.431388,42.6315631 42.2878888,44.8543843 39.7147792,46.4737519 L38.2478976,47.3969231 Z M53.5793328,5.20940344 C53.9275061,5.0049554 54.3506971,5.04807788 54.6262239,5.321685 C54.8990443,5.59642123 54.9437887,6.01717574 54.7428458,6.36652739 L54.5895972,6.63295958 L54.7581352,6.88999301 C55.3681262,7.82027602 55.6975824,8.90044517 55.6975824,10.0298901 L55.6975824,50.456044 C55.6975824,51.5017928 55.4129714,52.5069751 54.8810709,53.3957678 L54.7698731,53.5815766 L54.8293219,53.7897969 C54.9184724,54.1020476 54.8455312,54.4207686 54.6268862,54.6394136 C54.4665473,54.8001459 54.2558795,54.8884157 54.0321121,54.8942015 L54.0165755,54.8901487 C53.9721247,54.878255 53.9377204,54.8701001 53.8958169,54.8633278 L53.6781729,54.828153 L53.5054133,54.9651214 C52.4936671,55.7672603 51.2510761,56.2105495 49.9410989,56.2105495 L9.51824176,56.2105495 C8.19685462,56.2105495 6.94147699,55.7585506 5.92348297,54.9435289 L5.7290963,54.8479957 C5.54139514,54.8023667 5.40807392,54.7360046 5.30984793,54.6381269 C5.21199877,54.5406198 5.14536406,54.4043623 5.1011719,54.2135562 L5.00598561,54.0158918 C4.204548,53.004241 3.76175824,51.7629857 3.76175824,50.4553846 L3.76175824,10.0305495 C3.76175824,8.73213827 4.20071936,7.49490893 4.99344666,6.48552788 L5.13143744,6.30982397 L5.09261156,6.08981063 C5.04025858,5.79314375 5.11704776,5.51511397 5.31047647,5.32168526 C5.5371673,5.09499442 5.87432068,5.02237677 6.19381405,5.1245791 L6.40773702,5.19301065 L6.60097993,5.07854192 C7.48430522,4.55529827 8.48154592,4.27538462 9.51824176,4.27538462 L49.9404396,4.27538462 C51.0568264,4.27538462 52.128002,4.59909838 53.0547162,5.19814842 L53.3135556,5.36546836 L53.5793328,5.20940344 Z M9.51824176,54.4643956 L10.0182418,54.4630769 L49.9410989,54.4630769 C50.597057,54.4630769 51.2291067,54.2936694 51.8193,53.978058 L52.4136853,53.6602049 L50.9467402,52.1932598 C50.6059948,51.8520951 50.6059948,51.2998347 50.9463045,50.9603622 C51.2876897,50.6185583 51.8404422,50.6185583 52.1811744,50.9597096 L52.9586968,51.7345937 L53.566983,52.3408144 L53.7938812,51.5125434 C53.8969762,51.1362051 53.9514286,50.7977318 53.9514286,50.4547253 L53.9514286,10.0298901 C53.9514286,9.50821317 53.8474404,8.99682717 53.6497709,8.51389352 L53.3647061,7.81744104 L52.1816937,9.00284823 C52.0162357,9.16830585 51.795683,9.25758242 51.5643956,9.25758242 C51.3334507,9.25758242 51.1135507,9.16848119 50.9458705,9.00162295 C50.6065453,8.66229566 50.6065453,8.10821312 50.9471748,7.76674462 L51.5864125,7.1294846 L52.1239926,6.59356544 L51.4193647,6.31125146 C50.9453405,6.12133043 50.4486573,6.02153846 49.9410989,6.02153846 L9.51824176,6.02153846 C9.17176351,6.02153846 8.83273746,6.07613816 8.4580462,6.18021907 L7.63235974,6.40957642 L8.98996309,7.76717976 C9.330158,8.10821312 9.330158,8.66229566 8.98996309,9.00249057 C8.82333943,9.16829531 8.60287066,9.25758242 8.37230769,9.25758242 C8.14102027,9.25758242 7.92046758,9.16830585 7.75465229,9.00249057 L6.78895931,8.03547907 L6.31232948,7.55819855 L5.99424971,8.15300772 C5.67867138,8.74313919 5.50857143,9.37635245 5.50857143,10.0298901 L5.50857143,50.4547253 C5.50857143,50.9615127 5.60862949,51.460469 5.79778481,51.9314112 L6.07969757,52.6332928 L7.75434499,50.9615527 C8.09605721,50.6198408 8.64897745,50.6198408 8.98974586,50.9610283 C9.33125893,51.3008665 9.33125893,51.8532826 8.98996309,52.1945785 L7.8368774,53.3470049 L7.30455198,53.8790259 L8.00130306,54.1635513 C8.48384213,54.360601 8.99578151,54.4643956 9.51824176,54.4643956 Z M36.8448695,22.195946 C37.1028296,22.1797954 37.3390938,22.2628768 37.5130383,22.4361898 C37.6844431,22.6082284 37.7680388,22.8458463 37.7531291,23.1056372 L37.7418003,23.3030335 L37.8685415,23.4547908 C39.4528138,25.3517655 40.3356044,27.7317322 40.3356044,30.243956 C40.3356044,32.8203633 39.4022452,35.2553915 37.7355321,37.1762719 L37.6620445,37.2883856 C37.6059145,37.4058535 37.5613443,37.4759446 37.511062,37.5262268 C37.5156778,37.521611 37.5083285,37.5265327 37.4706397,37.5480382 L37.4533338,37.5579219 C37.4101997,37.5827435 37.385391,37.5977246 37.3535701,37.6191168 L37.2763996,37.683106 C35.2923832,39.6963373 32.599895,40.8512088 29.7296703,40.8512088 C23.880733,40.8512088 19.1217582,36.0926241 19.1217582,30.2432967 C19.1217582,27.4265845 20.2322579,24.7820727 22.1783173,22.807452 L22.2716033,22.6756517 C22.3304606,22.5549645 22.3743426,22.4861104 22.4251146,22.4347267 C22.5064762,22.3526125 22.6092756,22.2890432 22.7315671,22.2443685 L22.8834132,22.1560439 C24.7896233,20.5393026 27.1921326,19.6367033 29.7303297,19.6367033 C32.2320213,19.6367033 34.6026391,20.510795 36.4941957,22.081584 L36.6468414,22.2083443 L36.8448695,22.195946 Z M24.5713152,37.4333009 C26.0729545,38.5122886 27.8597168,39.1037363 29.730989,39.1037363 C31.7264872,39.1037363 33.6256149,38.4316677 35.1772764,37.2180132 L35.6217592,36.8703546 L33.8338885,35.0790897 C33.4928444,34.7393013 33.4928444,34.1865497 33.8337706,33.8452042 C34.1738799,33.504676 34.7268,33.504676 35.0675455,33.8454215 L36.8111745,35.5890505 L37.1478896,35.0733583 C38.0829733,33.6412417 38.5894505,31.9775374 38.5894505,30.2426374 C38.5894505,28.3703223 37.9990609,26.5842135 36.920149,25.0846845 L36.5768436,24.6075404 L35.0677589,26.1148047 C34.9014986,26.2806565 34.6807293,26.3701099 34.4512088,26.3701099 C34.2193146,26.3701099 33.9987484,26.2808723 33.832894,26.115018 C33.4921123,25.773817 33.4921123,25.2213886 33.8326764,24.8812434 L35.3404928,23.3752514 L34.8597942,23.0319946 C33.3669465,21.9659833 31.590203,21.3828571 29.7303297,21.3828571 C27.9923586,21.3828571 26.3284722,21.8891015 24.8978482,22.8253662 L24.3830673,23.162262 L26.1024906,24.8816853 C26.443823,25.2221795 26.443823,25.7747642 26.1027079,26.1154601 C25.9369388,26.2812292 25.7158454,26.3707692 25.4861538,26.3707692 C25.2548664,26.3707692 25.0343137,26.2814927 24.8684984,26.1156774 L23.1030606,24.3502396 L22.7550426,24.7949179 C21.5407214,26.3465104 20.8685714,28.2457186 20.8685714,30.2426374 C20.8685714,32.1022759 21.4522169,33.8804131 22.5177486,35.3721576 L22.860813,35.8524476 L24.8684984,33.8447622 C25.2087888,33.5040529 25.7622002,33.5040529 26.1022731,33.8445445 C26.4438228,34.1860944 26.4438228,34.7380195 26.1031439,35.0774429 L24.5092312,36.6739919 L24.0937557,37.0901553 L24.5713152,37.4333009 Z M1.50197802,59.3193407 C1.27355362,59.3193407 1.05347983,59.2297205 0.885207078,59.0624956 C0.544200213,58.721021 0.544344955,58.169575 0.885641303,57.8282787 L2.05059616,56.6639831 C2.39196986,56.3230288 2.94473344,56.3230288 3.28622442,56.6641003 C3.62616577,57.0040418 3.62616577,57.5566381 3.28578954,57.8974335 L2.1197334,59.0628302 C1.95309586,59.2294677 1.73215814,59.3193407 1.50197802,59.3193407 Z" id="Combined-Shape"></path>
                        </g>
                    </g>
                </g>
            </g>
        </g>
    </g>
</svg>