<?xml version="1.0" encoding="UTF-8"?>
<svg width="28px" height="28px" viewBox="0 0 28 28" version="1.1" xmlns="http://www.w3.org/2000/svg" xmlns:xlink="http://www.w3.org/1999/xlink">
    <!-- Generator: Sketch 55.1 (78136) - https://sketchapp.com -->
    <title>Instagram</title>
    <desc>Created with Sketch.</desc>
    <g id="Icons" stroke="none" stroke-width="1" fill="none" fill-rule="evenodd">
        <g id="Instagram" fill="#3B3B3B" fill-rule="nonzero">
            <path d="M12.5661517,0.8833634 C12.9921562,0.8826967 13.4674945,0.8833634 14.0015,0.8833634 C18.2735445,0.8833634 18.7798831,0.8986969 20.4669007,0.9753643 C22.0269169,1.0466984 22.8735924,1.3073678 23.4375983,1.5263701 C24.1842728,1.8163731 24.7166116,2.1630434 25.2762841,2.7230492 C25.83629,3.283055 26.1829602,3.8163939 26.4736299,4.5630684 C26.6926322,5.1264076 26.9536349,5.9730831 27.0246357,7.5330993 C27.1013031,9.2197835 27.11797,9.7264555 27.11797,13.9965 C27.11797,18.2665444 27.1013031,18.7732164 27.0246357,20.4599006 C26.9533016,22.0199169 26.6926322,22.8665924 26.4736299,23.4299316 C26.1836269,24.176606 25.83629,24.7082782 25.2762841,25.2679507 C24.7162783,25.8279565 24.1846061,26.1746268 23.4375983,26.4646298 C22.8742591,26.6846321 22.0269169,26.9446348 20.4669007,27.0159689 C18.7802165,27.0926364 18.2735445,27.1093032 14.0015,27.1093032 C9.7291222,27.1093032 9.2227836,27.0926364 7.5360993,27.0159689 C5.9760831,26.9439682 5.1294076,26.6832988 4.5650684,26.4642965 C3.8183939,26.1742935 3.2850551,25.8276232 2.7250492,25.2676174 C2.1650434,24.7076115 1.8183731,24.175606 1.5277034,23.4285982 C1.3087011,22.865259 1.0476984,22.0185835 0.9766977,20.4585673 C0.9000302,18.771883 0.8846967,18.2652111 0.8846967,13.9924999 C0.8846967,9.7197887 0.9000302,9.2157835 0.9766977,7.5290993 C1.0480318,5.969083 1.3087011,5.1224075 1.5277034,4.5584017 C1.8177064,3.8117272 2.1650434,3.2783883 2.7250492,2.7183825 C3.2850551,2.1583766 3.8183939,1.8117064 4.5650684,1.5210367 C5.1290743,1.3010344 5.9760831,1.0410317 7.5360993,0.9693643 C9.0121147,0.9026969 9.5841207,0.8826967 12.5661517,0.8793633 L12.5661517,0.8833634 Z M22.5422556,3.5400577 C21.4822446,3.5400577 20.6222356,4.3990667 20.6222356,5.459411 C20.6222356,6.5194221 21.4822446,7.379431 22.5422556,7.379431 C23.6022667,7.379431 24.4622756,6.5194221 24.4622756,5.459411 C24.4622756,4.3994 23.6022667,3.539391 22.5422556,3.539391 L22.5422556,3.5400577 Z M14.0015,5.7834144 C9.4637861,5.7834144 5.7847478,9.4624527 5.7847478,14.0001667 C5.7847478,18.5378806 9.4637861,22.2152522 14.0015,22.2152522 C18.539214,22.2152522 22.2169189,18.5378806 22.2169189,14.0001667 C22.2169189,9.4624527 18.5388806,5.7834144 14.0011667,5.7834144 L14.0015,5.7834144 Z" id="Combined-Shape"></path>
            <path d="M14.0015,8.6667778 C16.946864,8.6667778 19.3348889,11.0544693 19.3348889,14.0001667 C19.3348889,16.9455307 16.946864,19.3335556 14.0015,19.3335556 C11.0558027,19.3335556 8.6681111,16.9455307 8.6681111,14.0001667 C8.6681111,11.0544693 11.0558027,8.6667778 14.0015,8.6667778 L14.0015,8.6667778 Z" id="Shape"></path>
        </g>
    </g>
</svg>