<?xml version="1.0" encoding="UTF-8"?>
<svg width="32px" height="31px" viewBox="0 0 32 31" version="1.1" xmlns="http://www.w3.org/2000/svg" xmlns:xlink="http://www.w3.org/1999/xlink">
    <!-- Generator: Sketch 55.1 (78136) - https://sketchapp.com -->
    <title>LinkedIN</title>
    <desc>Created with Sketch.</desc>
    <g id="Icons" stroke="none" stroke-width="1" fill="none" fill-rule="evenodd">
        <g id="LinkedIN" fill="#3B3B3B" fill-rule="nonzero">
            <path d="M7.2006775,9.8473104 L0.4020214,9.8473104 L0.4020214,30.2744497 L7.2006775,30.2744497 L7.2006775,9.8473104 Z M7.6484541,3.5283721 C7.6043281,1.5255041 6.1720674,0 3.84629,0 C1.5205126,0 0,1.5255041 0,3.5283721 C0,5.4897539 1.475572,7.0591846 3.7580381,7.0591846 L3.8014852,7.0591846 C6.1720674,7.0591846 7.6484541,5.4897539 7.6484541,3.5283721 Z M31.719232,18.5621523 C31.719232,12.2878186 28.3652519,9.3676416 23.8914228,9.3676416 C20.2817837,9.3676416 18.6656875,11.3503088 17.7633456,12.7411856 L17.7633456,9.8478527 L10.9638749,9.8478527 C11.0534846,11.7646298 10.9638749,30.274992 10.9638749,30.274992 L17.7633456,30.274992 L17.7633456,18.8667921 C17.7633456,18.2562922 17.8074716,17.6472837 17.9872339,17.2101858 C18.4785934,15.9905418 19.5973562,14.7277845 21.4756285,14.7277845 C23.9367708,14.7277845 24.920576,16.6009061 24.920576,19.3459186 L24.920576,30.2744497 L31.7189605,30.2744497 L31.719232,18.5621523 Z" id="Combined-Shape"></path>
        </g>
    </g>
</svg>