<?xml version="1.0" encoding="UTF-8"?>
<svg width="31px" height="27px" viewBox="0 0 31 27" version="1.1" xmlns="http://www.w3.org/2000/svg" xmlns:xlink="http://www.w3.org/1999/xlink">
    <!-- Generator: Sketch 55.1 (78136) - https://sketchapp.com -->
    <title>Medium</title>
    <desc>Created with Sketch.</desc>
    <g id="Icons" stroke="none" stroke-width="1" fill="none" fill-rule="evenodd">
        <g id="Medium" fill="#3B3B3B" fill-rule="nonzero">
            <path d="M10.1755958,4.9211255 L0.5705752,0.1754761 C0.4883945,0.1348196 0.410051,0.1156499 0.3392754,0.1156499 C0.2384414,0.1156499 0.1531696,0.1548319 0.0931595,0.2263494 C0.0344285,0.2962871 0,0.3974018 0,0.5239005 L0,20.8970356 C0,21.2437747 0.2567748,21.6542372 0.5705752,21.8092797 L9.4467347,26.1948133 C9.5700591,26.2557981 9.6875211,26.2846579 9.7936845,26.2846579 C10.0927755,26.2846579 10.3025443,26.0559913 10.3025443,25.6721768 L10.3025443,5.1241975 C10.3025443,5.03825 10.2534064,4.9595701 10.1755958,4.9211255 Z M21.4257235,21.9266149 L30.050864,26.1880724 C30.5215646,26.4206361 30.9066735,26.1854392 30.9066735,25.6653305 L30.9066735,6.7025346 L21.4257235,21.9266149 Z M11.213141,6.4460614 L11.213141,16.8869956 L20.6051952,21.5274225 L11.213141,6.4460614 Z M30.6809163,4.8718321 L20.8904295,0.0345475 C20.8459815,0.012534 20.7975898,0.0023172 20.749198,0.0010533 C20.7460003,0.000948 20.7429092,0 20.7397115,0 C20.6206507,0 20.5021228,0.0590889 20.4379557,0.1619942 L14.4034805,9.8520465 L21.139743,20.6690009 L30.7748219,5.1974003 C30.8462371,5.082593 30.8028551,4.9320796 30.6809163,4.8718321 Z" id="Combined-Shape"></path>
        </g>
    </g>
</svg>